#!OML:ASF H:\IndianDance\Patient Classification 1\Patient 1\Session 1\dancer.ASF
:FULLY-SPECIFIED
:DEGREES
2043
root -27.2555 15.2077 3.60026 -169.994 1.46699 -179.365
lowerback 5.15788 3.44567 -1.13936
upperback -7.39782 4.9184 -0.532728
thorax -10.8399 2.61765 -0.6805
lowerneck -19.4679 4.55438 1.77127
upperneck 17.0422 4.16885 6.33954
head 8.42201 2.69381 2.37556
rclavicle -5.48211e-014 -1.39149e-015
rhumerus -4.10334 -30.9597 -41.0838
rradius 43.2639
rwrist -74.905
rhand -23.9743 -29.2777
rfingers 7.12502
rthumb 2.50222 -59.2427
lclavicle -5.48211e-014 -1.39149e-015
lhumerus 23.7992 43.7629 48.1034
lradius 25.4776
lwrist 42.8765
lhand -5.88703 -1031.97
lfingers 7.12502
lthumb 19.9409 77.0295
rfemur -36.5109 -20.0057 30.4663
rtibia 53.5544
rfoot -10.4597 -1.29946
rtoes -8.70864
lfemur -25.7077 24.3622 -15.7043
ltibia 52.3464
lfoot -10.2692 -2.3198
ltoes -18.0222
2044
root -27.2903 15.1839 3.6656 -169.86 1.87804 -179.501
lowerback 4.96825 3.48122 -1.21214
upperback -7.44543 4.9663 -0.592909
thorax -10.7802 2.64944 -0.700022
lowerneck -19.4362 4.72113 1.91352
upperneck 17.2906 4.33361 6.34987
head 8.50012 2.78201 2.38274
rclavicle -2.22452e-014 -1.88845e-015
rhumerus -2.243 -30.02 -42.3216
rradius 41.8942
rwrist -73.5955
rhand -23.8485 -29.8785
rfingers 7.12502
rthumb 2.62371 -59.8421
lclavicle -2.22452e-014 -1.88845e-015
lhumerus 24.4037 42.7541 48.5679
lradius 25.217
lwrist 43.2334
lhand -5.13865 -1031.75
lfingers 7.12502
lthumb 20.6602 77.1711
rfemur -37.4384 -20.0823 30.4047
rtibia 54.3446
rfoot -10.338 -1.14651
rtoes -8.38178
lfemur -25.4269 24.0054 -16.3069
ltibia 51.4169
lfoot -11.3532 -1.46717
ltoes -18.3804
2045
root -27.326 15.1606 3.73206 -169.692 2.18141 -179.645
lowerback 4.77154 3.48408 -1.24349
upperback -7.50192 4.97584 -0.659585
thorax -10.7214 2.65992 -0.743578
lowerneck -19.4051 4.87483 2.04433
upperneck 17.5158 4.48669 6.35558
head 8.57091 2.86337 2.38834
rclavicle 1.32813e-014 -4.27387e-015
rhumerus -0.490421 -28.9781 -43.4675
rradius 40.6702
rwrist -72.4128
rhand -23.8082 -30.2539
rfingers 7.12502
rthumb 2.66262 -60.2171
lclavicle 1.32813e-014 -4.27387e-015
lhumerus 24.9833 41.6931 48.9947
lradius 24.9466
lwrist 43.5161
lhand -4.65104 -1031.62
lfingers 7.12502
lthumb 21.1287 77.2489
rfemur -38.5154 -20.277 30.356
rtibia 55.2592
rfoot -10.1104 -0.971405
rtoes -8.23171
lfemur -25.3618 23.6469 -16.958
ltibia 50.6399
lfoot -12.3646 -0.416573
ltoes -18.5078
2046
root -27.3606 15.1374 3.79969 -169.523 2.38788 -179.8
lowerback 4.58777 3.45693 -1.26016
upperback -7.55069 4.94527 -0.725927
thorax -10.6602 2.64942 -0.789645
lowerneck -19.3782 5.02094 2.16653
upperneck 17.717 4.63598 6.35199
head 8.63465 2.94145 2.39136
rclavicle -4.73667e-014 -4.96962e-016
rhumerus 1.16675 -27.8066 -44.5145
rradius 39.5833
rwrist -71.3515
rhand -23.7384 -30.5431
rfingers 7.12502
rthumb 2.72997 -60.5053
lclavicle -4.73667e-014 -4.96962e-016
lhumerus 25.5736 40.6221 49.4051
lradius 24.6242
lwrist 43.5509
lhand -4.24513 -1031.49
lfingers 7.12502
lthumb 21.5186 77.332
rfemur -39.6861 -20.5667 30.2994
rtibia 56.2841
rfoot -9.80596 -0.814748
rtoes -8.35931
lfemur -25.4768 23.3424 -17.6257
ltibia 50.0612
lfoot -13.2135 0.713484
ltoes -18.3707
2047
root -27.3926 15.1139 3.86838 -169.382 2.51312 -179.958
lowerback 4.44928 3.41214 -1.28498
upperback -7.58619 4.88774 -0.782548
thorax -10.6129 2.62553 -0.819905
lowerneck -19.3622 5.15317 2.28045
upperneck 17.9072 4.7734 6.33223
head 8.69733 3.01196 2.38899
rclavicle -1.16227e-014 -1.19271e-015
rhumerus 2.68726 -26.4505 -45.403
rradius 38.6576
rwrist -70.4514
rhand -23.6334 -30.8425
rfingers 7.12502
rthumb 2.83142 -60.8035
lclavicle -1.16227e-014 -1.19271e-015
lhumerus 26.1656 39.4941 49.7871
lradius 24.2495
lwrist 43.3543
lhand -3.94542 -1031.41
lfingers 7.12502
lthumb 21.8064 77.383
rfemur -40.886 -20.9097 30.2192
rtibia 57.3919
rfoot -9.47279 -0.704439
rtoes -8.75456
lfemur -25.7226 23.126 -18.2732
ltibia 49.6873
lfoot -13.8836 1.79782
ltoes -18.0804
2048
root -27.421 15.0899 3.93784 -169.295 2.56423 -180.119
lowerback 4.37134 3.35423 -1.33725
upperback -7.60034 4.80625 -0.822487
thorax -10.582 2.59076 -0.817455
lowerneck -19.3612 5.27244 2.38619
upperneck 18.0946 4.90013 6.29418
head 8.7624 3.07536 2.38099
rclavicle 2.9271e-014 -1.10325e-014
rhumerus 4.06299 -24.8845 -46.1036
rradius 37.9003
rwrist -69.7069
rhand -23.5162 -31.2648
rfingers 7.12502
rthumb 2.94456 -61.2243
lclavicle 2.9271e-014 -1.10325e-014
lhumerus 26.7262 38.2708 50.1049
lradius 23.8475
lwrist 42.9917
lhand -3.68883 -1031.34
lfingers 7.12502
lthumb 22.0527 77.4222
rfemur -42.0525 -21.2884 30.0995
rtibia 58.5517
rfoot -9.16925 -0.671396
rtoes -9.47462
lfemur -26.0414 22.9976 -18.8717
ltibia 49.4923
lfoot -14.4344 2.68822
ltoes -17.5889
2049
root -27.4448 15.0656 4.00747 -169.276 2.54801 -180.256
lowerback 4.36524 3.29022 -1.41045
upperback -7.58908 4.71055 -0.834782
thorax -10.5701 2.54932 -0.776004
lowerneck -19.3859 5.37493 2.47789
upperneck 18.2934 5.00946 6.24501
head 8.83652 3.129 2.37065
rclavicle -5.5933e-014 -6.85807e-015
rhumerus 5.27665 -23.0885 -46.5795
rradius 37.3278
rwrist -69.167
rhand -23.293 -31.8882
rfingers 7.12502
rthumb 3.16016 -61.8446
lclavicle -5.5933e-014 -6.85807e-015
lhumerus 27.266 36.9563 50.3775
lradius 23.4432
lwrist 42.5279
lhand -3.38472 -1031.21
lfingers 7.12502
lthumb 22.3447 77.5192
rfemur -43.1195 -21.6707 29.9541
rtibia 59.7293
rfoot -8.94682 -0.740135
rtoes -10.4281
lfemur -26.3752 22.9533 -19.3676
ltibia 49.4292
lfoot -14.9293 3.31912
ltoes -16.9067
2050
root -27.4637 15.0413 4.07682 -169.33 2.46681 -180.361
lowerback 4.42935 3.22542 -1.49282
upperback -7.55209 4.60865 -0.820592
thorax -10.5745 2.5041 -0.703951
lowerneck -19.4387 5.45632 2.54458
upperneck 18.5065 5.09518 6.19788
head 8.92058 3.17053 2.36353
rclavicle 8.02811e-014 -7.7526e-015
rhumerus 6.33924 -21.1224 -46.8395
rradius 36.9261
rwrist -68.805
rhand -22.9893 -32.6834
rfingers 7.12502
rthumb 3.45347 -62.6351
lclavicle 8.02811e-014 -7.7526e-015
lhumerus 27.6722 35.3909 50.4602
lradius 23.1288
lwrist 42.289
lhand -3.0618 -1031.02
lfingers 7.12502
lthumb 22.6547 77.6724
rfemur -44.0448 -22.0459 29.7868
rtibia 60.9003
rfoot -8.85788 -0.924377
rtoes -11.4373
lfemur -26.6783 22.9855 -19.7422
ltibia 49.4481
lfoot -15.3782 3.70288
ltoes -16.1525
2051
root -27.4776 15.0183 4.14537 -169.454 2.3216 -180.42
lowerback 4.56116 3.16419 -1.57046
upperback -7.49343 4.50865 -0.776407
thorax -10.5973 2.4584 -0.606103
lowerneck -19.5199 5.51341 2.58744
upperneck 18.741 5.1522 6.15162
head 9.01725 3.19746 2.3586
rclavicle 8.32411e-014 4.22417e-015
rhumerus 7.25656 -19.0059 -46.8755
rradius 36.6873
rwrist -68.6594
rhand -22.5236 -33.7002
rfingers 7.12502
rthumb 3.90315 -63.6442
lclavicle 8.32411e-014 4.22417e-015
lhumerus 28.1095 33.7801 50.5929
lradius 22.8734
lwrist 42.1141
lhand -2.69168 -1030.82
lfingers 7.12502
lthumb 23.0098 77.8226
rfemur -44.7929 -22.3954 29.5941
rtibia 62.051
rfoot -8.94127 -1.21062
rtoes -11.9729
lfemur -26.9135 23.0786 -19.9762
ltibia 49.5002
lfoot -15.7637 3.87875
ltoes -15.6134
2052
root -27.487 14.9971 4.21257 -169.639 2.11547 -180.428
lowerback 4.74331 3.10903 -1.62681
upperback -7.41811 4.41659 -0.707846
thorax -10.6319 2.41427 -0.497251
lowerneck -19.6214 5.54174 2.59526
upperneck 18.9915 5.17393 6.12373
head 9.12259 3.20746 2.36219
rclavicle -5.10349e-014 -1.10822e-014
rhumerus 8.0582 -16.8213 -46.728
rradius 36.5699
rwrist -68.6549
rhand -22.0209 -34.6009
rfingers 7.12502
rthumb 4.38857 -64.5354
lclavicle -5.10349e-014 -1.10822e-014
lhumerus 28.5535 32.0903 50.7411
lradius 22.7114
lwrist 42.1637
lhand -2.33023 -1030.57
lfingers 7.12502
lthumb 23.3566 78.0323
rfemur -45.3525 -22.7248 29.3931
rtibia 63.1786
rfoot -9.21257 -1.66404
rtoes -12.0832
lfemur -27.0656 23.2136 -20.0705
ltibia 49.5469
lfoot -16.1193 3.85925
ltoes -15.2858
2053
root -27.4933 14.9777 4.27832 -169.863 1.83611 -180.389
lowerback 4.95842 3.05217 -1.63347
upperback -7.33695 4.32625 -0.626808
thorax -10.6766 2.36691 -0.404161
lowerneck -19.7341 5.54487 2.57549
upperneck 19.257 5.16214 6.11773
head 9.23484 3.20199 2.37413
rclavicle 5.8921e-015 2.08724e-015
rhumerus 8.75476 -14.5759 -46.4188
rradius 36.5586
rwrist -68.7927
rhand -21.5247 -35.3494
rfingers 7.12502
rthumb 4.86773 -65.2735
lclavicle 5.8921e-015 2.08724e-015
lhumerus 29.0078 30.3382 50.9125
lradius 22.6424
lwrist 42.4155
lhand -2.04094 -1030.32
lfingers 7.12502
lthumb 23.6341 78.2473
rfemur -45.7412 -23.0655 29.1928
rtibia 64.2902
rfoot -9.65204 -2.30265
rtoes -11.7043
lfemur -27.1457 23.3494 -20.0504
ltibia 49.5621
lfoot -16.485 3.67609
ltoes -14.9359
